<?xml version="1.0" encoding="iso-8859-1"?>
<!-- Generator: Adobe Illustrator 16.0.0, SVG Export Plug-In . SVG Version: 6.00 Build 0)  -->
<!DOCTYPE svg PUBLIC "-//W3C//DTD SVG 1.1//EN" "http://www.w3.org/Graphics/SVG/1.1/DTD/svg11.dtd">
<svg version="1.1" id="Capa_1" xmlns="http://www.w3.org/2000/svg" xmlns:xlink="http://www.w3.org/1999/xlink" x="0px" y="0px"
	 width="492.526px" height="492.527px" viewBox="0 0 492.526 492.527" style="enable-background:new 0 0 492.526 492.527;"
	 xml:space="preserve">
<g>
	<g>
		<path d="M262.651,207.18c-5.666-57.56-27.296-106.848-28.213-108.918c-2.008-4.526-6.146-7.753-11.026-8.593
			c-4.883-0.842-9.86,0.812-13.266,4.407c-30.694,32.38-58.73,51.188-88.231,59.19c-29.492,8.002-62.094,5.71-102.599-7.216
			c-4.786-1.527-10.019-0.524-13.9,2.661c-3.883,3.186-5.886,8.12-5.323,13.112c0.254,2.25,6.494,55.713,30.688,108.245
			c33.608,72.974,85.313,108.119,149.523,101.64c0.808-0.08,1.607-0.229,2.389-0.439c0.782-0.212,1.548-0.488,2.287-0.827
			C243.664,343.588,270.522,287.133,262.651,207.18z M43.808,219.902c-0.885-12.05,14.402-22.995,34.143-24.445
			c19.741-1.452,36.464,7.139,37.35,19.189c0.886,12.05-14.896,16.245-34.637,17.694C60.92,233.793,44.695,231.952,43.808,219.902z
			 M169.943,324.258c-36.473,9.893-70.586,1.15-76.193-19.525c-0.399-1.476-0.627-2.974-0.723-4.482
			c17.808,7.547,43.745,8.568,70.742,1.246s48.863-21.311,60.417-36.82c0.681,1.352,1.243,2.758,1.642,4.234
			C231.435,289.584,206.415,314.366,169.943,324.258z M200.541,199.827c-17.769,8.722-33.507,13.076-38.831,2.231
			c-5.325-10.847,4.766-26.71,22.534-35.433c17.771-8.723,36.489-7.002,41.814,3.844
			C231.384,181.317,218.311,191.104,200.541,199.827z"/>
		<path d="M489.815,222.972c-2.854-4.049-7.546-6.398-12.495-6.268c-44.6,1.181-77.722-5.352-104.236-20.561
			c-26.508-15.203-47.935-39.882-67.427-77.667c-2.303-4.465-6.71-7.457-11.709-7.951c-4.996-0.493-9.905,1.578-13.036,5.504
			c-0.659,0.827-8.302,10.482-18.302,26.064c3.701,13.061,7.312,28.063,10.012,44.124c8.688-6.852,25.646-3.345,39.543,8.655
			c14.982,12.935,20.728,30.837,12.831,39.981c-7.897,9.144-22.021,0.948-37.004-11.989c-4.624-3.992-8.786-7.97-12.104-11.828
			c3.093,33,0.698,62.74-7.122,88.769c12.188,1.54,25.727,6.079,38.878,13.62c32.779,18.804,50.711,49.11,40.052,67.692
			c-0.76,1.328-1.658,2.545-2.658,3.681c-7.252-17.929-24.865-36.995-49.129-50.915c-11.521-6.606-23.278-11.312-34.507-14.156
			c-0.546,1.225-1.101,2.443-1.674,3.648c-7.01,14.732-16.006,27.804-26.913,39.16c7.215,10.693,16.23,20.492,27.042,29.326
			c0.63,0.516,1.301,0.975,2.002,1.379c0.704,0.403,1.44,0.749,2.202,1.033c60.479,22.522,119.396,1.611,170.381-60.479
			c36.704-44.697,56.274-94.84,57.093-96.951C493.315,232.226,492.672,227.019,489.815,222.972z M434.538,281.964
			c-3.908,11.433-20.07,9.106-38.804,2.704c-18.729-6.399-32.936-14.453-29.028-25.887s22.261-15.512,40.989-9.11
			C426.429,256.073,438.444,270.532,434.538,281.964z"/>
	</g>
</g>
<g>
</g>
<g>
</g>
<g>
</g>
<g>
</g>
<g>
</g>
<g>
</g>
<g>
</g>
<g>
</g>
<g>
</g>
<g>
</g>
<g>
</g>
<g>
</g>
<g>
</g>
<g>
</g>
<g>
</g>
</svg>
